<svg xmlns="http://www.w3.org/2000/svg" viewBox="0 0 100 100" width="100" height="100">
  <defs>
    <linearGradient id="chatGradient" x1="0%" y1="0%" x2="100%" y2="100%">
      <stop offset="0%" style="stop-color:#8B5CF6;stop-opacity:1" />
      <stop offset="100%" style="stop-color:#3B82F6;stop-opacity:1" />
    </linearGradient>
  </defs>
  
  <!-- Left speech bubble -->
  <path d="M 25 30 Q 25 20 35 20 L 55 20 Q 65 20 65 30 L 65 50 Q 65 60 55 60 L 40 60 L 30 70 L 30 60 Q 25 60 25 50 Z" 
        fill="url(#chatGradient)" opacity="0.9"/>
  
  <!-- Right speech bubble -->
  <path d="M 45 40 Q 45 30 55 30 L 75 30 Q 85 30 85 40 L 85 60 Q 85 70 75 70 L 60 70 L 50 80 L 50 70 Q 45 70 45 60 Z" 
        fill="url(#chatGradient)"/>
</svg>
